<svg width="61" height="61" viewBox="0 0 61 61" fill="none" xmlns="http://www.w3.org/2000/svg">
<path d="M30.4208 26.1467C27.987 26.1467 26.0008 28.1329 26.0008 30.5667C26.0008 33.0005 27.987 34.9866 30.4208 34.9866C32.8546 34.9866 34.8407 33.0005 34.8407 30.5667C34.8407 28.1329 32.8546 26.1467 30.4208 26.1467ZM43.6773 30.5667C43.6773 28.7364 43.6938 26.9226 43.5911 25.0956C43.4883 22.9735 43.0042 21.0902 41.4524 19.5384C39.8973 17.9833 38.0172 17.5025 35.8951 17.3997C34.0648 17.2969 32.2511 17.3135 30.4241 17.3135C28.5938 17.3135 26.78 17.2969 24.953 17.3997C22.8309 17.5025 20.9476 17.9866 19.3958 19.5384C17.8407 21.0935 17.3599 22.9735 17.2571 25.0956C17.1543 26.9259 17.1709 28.7397 17.1709 30.5667C17.1709 32.3937 17.1543 34.2107 17.2571 36.0377C17.3599 38.1598 17.844 40.0432 19.3958 41.595C20.9509 43.1501 22.8309 43.6308 24.953 43.7336C26.7834 43.8364 28.5971 43.8198 30.4241 43.8198C32.2544 43.8198 34.0681 43.8364 35.8951 43.7336C38.0172 43.6308 39.9006 43.1467 41.4524 41.595C43.0075 40.0399 43.4883 38.1598 43.5911 36.0377C43.6972 34.2107 43.6773 32.397 43.6773 30.5667ZM30.4208 37.3673C26.6574 37.3673 23.6201 34.3301 23.6201 30.5667C23.6201 26.8033 26.6574 23.766 30.4208 23.766C34.1842 23.766 37.2214 26.8033 37.2214 30.5667C37.2214 34.3301 34.1842 37.3673 30.4208 37.3673ZM37.5 25.0757C36.6213 25.0757 35.9117 24.3662 35.9117 23.4875C35.9117 22.6088 36.6213 21.8992 37.5 21.8992C38.3786 21.8992 39.0882 22.6088 39.0882 23.4875C39.0885 23.6961 39.0476 23.9028 38.9679 24.0956C38.8881 24.2884 38.7712 24.4636 38.6236 24.6111C38.4761 24.7587 38.3009 24.8756 38.1081 24.9554C37.9153 25.0351 37.7086 25.076 37.5 25.0757Z" fill="#454D4D"/>
</svg>
