<svg width="322" height="97" viewBox="0 0 322 97" fill="none" xmlns="http://www.w3.org/2000/svg">
<g clip-path="url(#clip0_5_2246)">
<path d="M230.507 30.7476V36.3328H237.772V41.0157H230.507V50.9186H225.516V26.0647H239.216V30.7476H230.507Z" fill="#9BCB46"/>
<path d="M240.672 38.4916C240.672 31.1772 246.309 25.635 253.833 25.635C261.357 25.635 266.995 31.1772 266.995 38.4916C266.995 45.806 261.314 51.3589 253.833 51.3589C246.352 51.3589 240.672 45.806 240.672 38.4916ZM261.864 38.4916C261.864 33.8838 258.393 30.4253 253.833 30.4253C249.274 30.4253 245.77 33.8838 245.77 38.4916C245.77 43.0993 249.241 46.5578 253.833 46.5578C258.425 46.5578 261.864 43.0993 261.864 38.4916Z" fill="#9BCB46"/>
<path d="M269.011 38.4916C269.011 31.1772 274.648 25.635 282.172 25.635C289.696 25.635 295.334 31.1772 295.334 38.4916C295.334 45.806 289.653 51.3589 282.172 51.3589C274.691 51.3589 269.011 45.806 269.011 38.4916ZM290.203 38.4916C290.203 33.8838 286.732 30.4253 282.172 30.4253C277.613 30.4253 274.109 33.8838 274.109 38.4916C274.109 43.0993 277.58 46.5578 282.172 46.5578C286.764 46.5578 290.203 43.0993 290.203 38.4916Z" fill="#9BCB46"/>
<path d="M321.064 38.4916C321.064 45.5912 315.61 50.9186 308.334 50.9186H298.568V26.0647H308.334C315.599 26.0647 321.064 31.3921 321.064 38.4916ZM315.933 38.4916C315.933 34.0557 312.646 30.7476 308.237 30.7476H303.57V46.2357H308.237C312.646 46.2357 315.933 42.9168 315.933 38.4916Z" fill="#9BCB46"/>
<path d="M274.109 68.2861C272.482 68.2861 271.21 69.3172 270.789 70.8531H277.462C277.063 69.3172 275.748 68.2861 274.12 68.2861H274.109Z" fill="#9BCB46"/>
<path d="M263.351 67.2121C263.351 65.848 262.36 64.8491 261.023 64.8491H258.555V69.6072H261.023C262.371 69.6072 263.351 68.5761 263.351 67.2121Z" fill="#9BCB46"/>
<path d="M296.336 68.4365C294.331 68.4365 292.855 69.951 292.855 71.9272C292.855 73.9035 294.331 75.4179 296.336 75.4179C298.341 75.4179 299.797 73.9035 299.797 71.9272C299.797 69.951 298.32 68.4365 296.336 68.4365Z" fill="#9BCB46"/>
<path d="M319.394 56.5251H251.095C249.866 56.5251 248.875 57.5133 248.875 58.7377V80.0257C248.875 81.2501 249.866 82.2383 251.095 82.2383H319.394C320.622 82.2383 321.614 81.2501 321.614 80.0257V58.7377C321.614 57.5133 320.622 56.5251 319.394 56.5251ZM263.125 77.5124L258.835 71.8735H258.544V77.5124H255.924V62.3788H261.055C263.89 62.3788 266.046 64.441 266.046 67.1799C266.046 69.5965 264.332 71.4332 261.972 71.8091L266.391 77.5124H263.114H263.125ZM280.049 72.8617H270.757C271.113 74.4835 272.428 75.5576 274.12 75.5576C275.554 75.5576 276.718 74.9024 277.203 73.9572H279.887C279.068 76.2128 276.869 77.7702 274.099 77.7702C270.692 77.7702 268.116 75.2461 268.116 71.9165C268.116 68.5869 270.692 66.0628 274.099 66.0628C277.505 66.0628 280.103 68.5869 280.103 71.938C280.103 72.185 280.081 72.5932 280.038 72.8617H280.049ZM288.78 68.5654H286.376V77.5124H283.908V68.5654H281.644V66.3314H283.908V63.571L286.376 63.0447V66.3314H288.78V68.5654ZM302.244 77.5124H299.775V75.7831C298.87 77.0076 297.49 77.7809 295.83 77.7809C292.661 77.7809 290.311 75.2568 290.311 71.9272C290.311 68.5976 292.661 66.0736 295.83 66.0736C297.479 66.0736 298.87 66.8362 299.775 68.0714V66.3421H302.244V77.5231V77.5124ZM308.377 77.5124H305.909V66.3314H308.377V77.5124ZM307.148 64.441C306.264 64.441 305.585 63.7643 305.585 62.8836C305.585 62.0029 306.264 61.3262 307.148 61.3262C308.032 61.3262 308.733 61.9814 308.733 62.8836C308.733 63.7858 308.054 64.441 307.148 64.441ZM314.521 77.5124H312.053V61.7236H314.521V77.5124Z" fill="#9BCB46"/>
<path d="M238.494 77.5124L237.535 76.3739C236.241 77.4157 234.657 77.8668 232.943 77.8668C228.448 77.8668 225.473 75.1495 225.473 71.111C225.473 68.4151 226.939 66.7717 228.685 65.5795C227.79 64.1725 227.219 62.744 227.219 61.337C227.219 58.5551 229.558 56.5251 232.587 56.5251C235.616 56.5251 238.02 58.5229 238.02 61.3047C238.02 63.6677 236.306 65.0747 234.333 66.2991L237.697 70.2732C237.761 69.9724 237.783 69.6717 237.783 69.3495V67.2551H241.803V69.3495C241.803 71.025 241.318 72.518 240.575 73.7424L243.755 77.5124H238.505H238.494ZM235.109 73.5061L230.938 68.5439C230.216 69.1991 229.741 69.9832 229.741 70.9928C229.741 72.6684 231.153 73.925 233.158 73.925C233.848 73.925 234.538 73.7746 235.109 73.5061ZM231.207 61.337C231.207 61.9921 231.541 62.744 232.134 63.5818C233.212 62.9266 233.999 62.207 233.999 61.2833C233.999 60.5099 233.374 59.9407 232.587 59.9407C231.8 59.9407 231.207 60.4455 231.207 61.3477V61.337Z" fill="#9BCB46"/>
<path d="M0.625 65.848H7.89032C7.89032 71.6264 12.2236 75.9442 18.023 75.9442C23.8223 75.9442 28.1556 71.6264 28.1556 65.848V28.6316H35.27V65.848C35.27 75.4823 27.7675 82.7215 17.9475 82.7215C8.12747 82.7215 0.625 75.4823 0.625 65.848Z" fill="#27AAE1"/>
<path d="M79.4225 42.4979V81.798H72.7716V74.3225C69.527 79.4887 64.0295 82.7217 57.4648 82.7217C46.168 82.7217 37.7493 73.8606 37.7493 62.1533C37.7493 50.446 46.1788 41.585 57.4648 41.585C64.0402 41.585 69.527 44.8179 72.7716 49.9842V42.5087H79.4225V42.4979ZM72.7716 62.1426C72.7716 54.0549 66.7351 47.9649 58.6937 47.9649C50.6522 47.9649 44.5403 54.0549 44.5403 62.1426C44.5403 70.2303 50.5768 76.3202 58.6937 76.3202C66.8106 76.3202 72.7716 70.2303 72.7716 62.1426Z" fill="#27AAE1"/>
<path d="M126.669 62.1533C126.669 73.8606 118.164 82.7217 106.867 82.7217C100.291 82.7217 94.8047 79.4887 91.5601 74.3225V96.4375H84.9092V42.4979H91.5601V49.9734C94.8047 44.8072 100.302 41.5742 106.867 41.5742C118.153 41.5742 126.669 50.4353 126.669 62.1426V62.1533ZM119.781 62.1533C119.781 54.0656 113.744 47.9756 105.627 47.9756C97.5103 47.9756 91.5493 54.0656 91.5493 62.1533C91.5493 70.241 97.5858 76.331 105.627 76.331C113.669 76.331 119.781 70.241 119.781 62.1533Z" fill="#27AAE1"/>
<path d="M148.475 48.5126H139.431V81.7979H132.781V48.5126H124.276V42.4978H132.781V32.2512H139.431V42.4978H148.475V48.5126Z" fill="#27AAE1"/>
<path d="M150.135 30.2535C150.135 27.708 152.065 25.8606 154.62 25.8606C157.174 25.8606 159.028 27.708 159.028 30.2535C159.028 32.7991 157.099 34.6465 154.62 34.6465C152.14 34.6465 150.135 32.7239 150.135 30.2535ZM151.3 42.5086H157.95V81.8087H151.3V42.5086Z" fill="#27AAE1"/>
<path d="M200.249 57.5241V81.798H193.598V59.6078C193.598 52.5941 189.114 47.9756 182.075 47.9756C175.036 47.9756 170.013 52.6801 170.013 59.7689V81.8087H163.362V42.5087H170.013V48.8242C173.031 44.2057 178.054 41.585 184.241 41.585C193.835 41.585 200.249 47.9005 200.249 57.5348V57.5241Z" fill="#27AAE1"/>
<path d="M204.032 30.2535C204.032 27.708 205.962 25.8606 208.517 25.8606C211.071 25.8606 212.925 27.708 212.925 30.2535C212.925 32.7991 210.996 34.6465 208.517 34.6465C206.037 34.6465 204.032 32.7239 204.032 30.2535ZM205.197 42.5086H211.847V81.8087H205.197V42.5086Z" fill="#27AAE1"/>
<path d="M85.5883 17.5904C83.7882 13.6164 81.0933 11.2427 81.0933 11.2427C70.4648 25.7426 79.9615 37.4284 80.8777 38.4917C80.7268 36.161 80.5112 26.9992 85.5883 17.5904Z" fill="#9BCB46"/>
<path d="M109.616 0.4375C97.2517 4.87339 88.9946 12.5744 85.0709 23.3473C82.7426 29.738 82.6887 35.4413 82.7965 37.7398C93.3387 35.1728 100.96 30.2536 105.455 23.0896C111.179 13.9707 110.144 3.7134 109.616 0.4375Z" fill="#9BCB46"/>
</g>
<defs>
<clipPath id="clip0_5_2246">
<rect width="321" height="96" fill="white" transform="translate(0.625 0.4375)"/>
</clipPath>
</defs>
</svg>
