<svg width="155" height="47" viewBox="0 0 155 47" fill="none" xmlns="http://www.w3.org/2000/svg">
<g clip-path="url(#clip0_5_2024)">
<path d="M110.875 15.0126V17.7024H114.361V19.9578H110.875V24.727H108.48V12.7573H115.054V15.0126H110.875Z" fill="white"/>
<path d="M115.753 18.742C115.753 15.2194 118.458 12.5503 122.069 12.5503C125.679 12.5503 128.385 15.2194 128.385 18.742C128.385 22.2647 125.659 24.939 122.069 24.939C118.479 24.939 115.753 22.2647 115.753 18.742ZM125.922 18.742C125.922 16.5229 124.257 14.8573 122.069 14.8573C119.881 14.8573 118.2 16.5229 118.2 18.742C118.2 20.9611 119.865 22.6268 122.069 22.6268C124.272 22.6268 125.922 20.9611 125.922 18.742Z" fill="white"/>
<path d="M129.352 18.742C129.352 15.2194 132.057 12.5503 135.668 12.5503C139.278 12.5503 141.984 15.2194 141.984 18.742C141.984 22.2647 139.258 24.939 135.668 24.939C132.078 24.939 129.352 22.2647 129.352 18.742ZM139.521 18.742C139.521 16.5229 137.856 14.8573 135.668 14.8573C133.48 14.8573 131.799 16.5229 131.799 18.742C131.799 20.9611 133.464 22.6268 135.668 22.6268C137.871 22.6268 139.521 20.9611 139.521 18.742Z" fill="white"/>
<path d="M154.331 18.7422C154.331 22.1613 151.714 24.727 148.222 24.727H143.535V12.7573H148.222C151.708 12.7573 154.331 15.323 154.331 18.7422ZM151.869 18.7422C151.869 16.6058 150.291 15.0126 148.175 15.0126H145.936V22.4717H148.175C150.291 22.4717 151.869 20.8733 151.869 18.7422Z" fill="white"/>
<path d="M131.799 33.0918C131.017 33.0918 130.407 33.5884 130.205 34.3281H133.407C133.216 33.5884 132.585 33.0918 131.804 33.0918H131.799Z" fill="white"/>
<path d="M126.636 32.5743C126.636 31.9173 126.16 31.4363 125.519 31.4363H124.334V33.7278H125.519C126.165 33.7278 126.636 33.2312 126.636 32.5743Z" fill="white"/>
<path d="M142.465 33.1643C141.502 33.1643 140.794 33.8937 140.794 34.8454C140.794 35.7972 141.502 36.5266 142.465 36.5266C143.427 36.5266 144.125 35.7972 144.125 34.8454C144.125 33.8937 143.416 33.1643 142.465 33.1643Z" fill="white"/>
<path d="M153.529 27.4272H120.755C120.165 27.4272 119.69 27.9031 119.69 28.4928V38.7452C119.69 39.3348 120.165 39.8107 120.755 39.8107H153.529C154.119 39.8107 154.595 39.3348 154.595 38.7452V28.4928C154.595 27.9031 154.119 27.4272 153.529 27.4272ZM126.528 37.5347L124.469 34.8191H124.329V37.5347H123.072V30.2464H125.535C126.895 30.2464 127.93 31.2395 127.93 32.5586C127.93 33.7224 127.107 34.607 125.974 34.788L128.095 37.5347H126.523H126.528ZM134.649 35.295H130.19C130.361 36.076 130.992 36.5933 131.804 36.5933C132.492 36.5933 133.051 36.2778 133.283 35.8226H134.571C134.178 36.9088 133.123 37.6589 131.794 37.6589C130.159 37.6589 128.923 36.4433 128.923 34.8398C128.923 33.2362 130.159 32.0206 131.794 32.0206C133.428 32.0206 134.675 33.2362 134.675 34.8501C134.675 34.9691 134.665 35.1656 134.644 35.295H134.649ZM138.839 33.2259H137.685V37.5347H136.501V33.2259H135.415V32.1499H136.501V30.8205L137.685 30.5671V32.1499H138.839V33.2259ZM145.3 37.5347H144.115V36.7019C143.681 37.2916 143.018 37.6641 142.222 37.6641C140.701 37.6641 139.573 36.4485 139.573 34.8449C139.573 33.2414 140.701 32.0258 142.222 32.0258C143.013 32.0258 143.681 32.3931 144.115 32.9879V32.1551H145.3V37.5399V37.5347ZM148.243 37.5347H147.058V32.1499H148.243V37.5347ZM147.653 31.2395C147.229 31.2395 146.903 30.9137 146.903 30.4895C146.903 30.0653 147.229 29.7395 147.653 29.7395C148.077 29.7395 148.414 30.055 148.414 30.4895C148.414 30.924 148.088 31.2395 147.653 31.2395ZM151.191 37.5347H150.007V29.9308H151.191V37.5347Z" fill="white"/>
<path d="M114.708 37.5347L114.248 36.9864C113.627 37.4882 112.866 37.7054 112.044 37.7054C109.887 37.7054 108.459 36.3967 108.459 34.4518C108.459 33.1534 109.163 32.362 110.001 31.7878C109.571 31.1102 109.297 30.4223 109.297 29.7446C109.297 28.4049 110.42 27.4272 111.873 27.4272C113.327 27.4272 114.48 28.3894 114.48 29.7291C114.48 30.8671 113.658 31.5447 112.711 32.1344L114.325 34.0483C114.356 33.9035 114.367 33.7587 114.367 33.6035V32.5948H116.296V33.6035C116.296 34.4104 116.063 35.1294 115.706 35.7191L117.232 37.5347H114.713H114.708ZM113.084 35.6053L111.082 33.2155C110.735 33.5311 110.508 33.9087 110.508 34.3949C110.508 35.2018 111.185 35.8071 112.147 35.8071C112.479 35.8071 112.81 35.7346 113.084 35.6053ZM111.211 29.7446C111.211 30.0602 111.372 30.4223 111.656 30.8257C112.173 30.5102 112.551 30.1636 112.551 29.7188C112.551 29.3463 112.251 29.0722 111.873 29.0722C111.496 29.0722 111.211 29.3153 111.211 29.7498V29.7446Z" fill="white"/>
<path d="M0.561768 31.9174H4.04818C4.04818 34.7003 6.12761 36.7797 8.91054 36.7797C11.6935 36.7797 13.7729 34.7003 13.7729 31.9174V13.9939H17.1869V31.9174C17.1869 36.5573 13.5867 40.0437 8.87433 40.0437C4.16198 40.0437 0.561768 36.5573 0.561768 31.9174Z" fill="white"/>
<path d="M38.3744 20.6719V39.5988H35.1828V35.9986C33.6258 38.4867 30.9877 40.0437 27.8376 40.0437C22.4165 40.0437 18.3766 35.7762 18.3766 30.1379C18.3766 24.4997 22.4217 20.2322 27.8376 20.2322C30.9929 20.2322 33.6258 21.7892 35.1828 24.2772V20.677H38.3744V20.6719ZM35.1828 30.1328C35.1828 26.2377 32.2861 23.3048 28.4272 23.3048C24.5684 23.3048 21.6355 26.2377 21.6355 30.1328C21.6355 34.0278 24.5322 36.9608 28.4272 36.9608C32.3223 36.9608 35.1828 34.0278 35.1828 30.1328Z" fill="white"/>
<path d="M61.0465 30.1375C61.0465 35.7758 56.9652 40.0433 51.5442 40.0433C48.3889 40.0433 45.7559 38.4863 44.199 35.9982V46.6488H41.0074V20.6714H44.199V24.2716C45.7559 21.7836 48.394 20.2266 51.5442 20.2266C56.9601 20.2266 61.0465 24.4941 61.0465 30.1323V30.1375ZM57.7411 30.1375C57.7411 26.2424 54.8444 23.3095 50.9494 23.3095C47.0543 23.3095 44.1938 26.2424 44.1938 30.1375C44.1938 34.0326 47.0905 36.9655 50.9494 36.9655C54.8082 36.9655 57.7411 34.0326 57.7411 30.1375Z" fill="white"/>
<path d="M71.5108 23.5688H67.1709V39.5991H63.9793V23.5688H59.8981V20.6721H63.9793V15.7373H67.1709V20.6721H71.5108V23.5688Z" fill="white"/>
<path d="M72.3073 14.7748C72.3073 13.5489 73.2333 12.6592 74.4592 12.6592C75.6851 12.6592 76.5748 13.5489 76.5748 14.7748C76.5748 16.0008 75.6489 16.8905 74.4592 16.8905C73.2695 16.8905 72.3073 15.9645 72.3073 14.7748ZM72.866 20.6769H76.0576V39.6039H72.866V20.6769Z" fill="white"/>
<path d="M96.3556 27.9085V39.5988H93.164V28.912C93.164 25.5342 91.0122 23.3099 87.6344 23.3099C84.2566 23.3099 81.8461 25.5756 81.8461 28.9896V39.604H78.6545V20.677H81.8461V23.7186C83.2945 21.4943 85.705 20.2322 88.6741 20.2322C93.2778 20.2322 96.3556 23.2737 96.3556 27.9137V27.9085Z" fill="white"/>
<path d="M98.1713 14.7748C98.1713 13.5489 99.0972 12.6592 100.323 12.6592C101.549 12.6592 102.439 13.5489 102.439 14.7748C102.439 16.0008 101.513 16.8905 100.323 16.8905C99.1334 16.8905 98.1713 15.9645 98.1713 14.7748ZM98.7299 20.6769H101.921V39.6039H98.7299V20.6769Z" fill="white"/>
<path d="M41.3333 8.67646C40.4695 6.76256 39.1763 5.61938 39.1763 5.61938C34.076 12.6026 38.6331 18.2305 39.0728 18.7426C39.0004 17.6201 38.8969 13.2078 41.3333 8.67646Z" fill="#8DC63F"/>
<path d="M52.8633 0.416016C46.9302 2.55235 42.9679 6.26119 41.085 11.4494C39.9677 14.5272 39.9419 17.2739 39.9936 18.3809C45.0525 17.1446 48.7096 14.7755 50.8667 11.3253C53.6134 6.93364 53.1168 1.9937 52.8633 0.416016Z" fill="#8DC63F"/>
</g>
<defs>
<clipPath id="clip0_5_2024">
<rect width="154.038" height="46.2338" fill="white" transform="translate(0.561768 0.415527)"/>
</clipPath>
</defs>
</svg>
