<svg width="61" height="61" viewBox="0 0 61 61" fill="none" xmlns="http://www.w3.org/2000/svg">
<rect width="60" height="60" transform="translate(0.294922 0.4375)" fill="#8DC63F"/>
<path d="M23.0494 42.0695V25.366H17.4975V42.0695H23.0494ZM20.2742 23.0841C22.2102 23.0841 23.4153 21.8014 23.4153 20.1985C23.3792 18.5595 22.2103 17.3125 20.3109 17.3125C18.4118 17.3125 17.1699 18.5596 17.1699 20.1985C17.1699 21.8015 18.3747 23.0841 20.2379 23.0841H20.274H20.2742ZM26.1224 42.0695H31.6743V32.7415C31.6743 32.2422 31.7103 31.7435 31.8569 31.3867C32.2583 30.3892 33.1718 29.3562 34.7055 29.3562C36.7145 29.3562 37.5182 30.8879 37.5182 33.1334V42.0694H43.0698V32.4918C43.0698 27.3611 40.3307 24.9739 36.6779 24.9739C33.6829 24.9739 32.3679 26.648 31.6373 27.7882H31.6744V25.3657H26.1225C26.1953 26.933 26.1225 42.0692 26.1225 42.0692L26.1224 42.0695Z" fill="white"/>
</svg>
