<svg width="89" height="89" viewBox="0 0 89 89" fill="none" xmlns="http://www.w3.org/2000/svg">
<circle cx="44.6018" cy="44.5" r="44.25" fill="#F7F7F7"/>
<g clip-path="url(#clip0_5_2111)">
<path d="M39.1727 16.7714C35.4181 16.7714 32.1496 18.8944 30.504 22.0029C28.8583 18.8944 25.5898 16.7714 21.8352 16.7714C21.2096 16.7714 20.7024 17.2785 20.7024 17.9042V40.6233C20.7024 43.6386 23.155 46.0917 26.1696 46.0917C26.7952 46.0917 27.3024 45.5846 27.3024 44.9589C27.3024 44.3333 26.7952 43.8261 26.1696 43.8261C24.4043 43.8261 22.968 42.3892 22.968 40.6233V36.4656C26.0806 36.9407 28.6344 39.343 29.2384 42.5135C29.263 42.6428 29.3087 42.7626 29.3712 42.8703V59.7418C29.3712 60.3674 29.8783 60.8746 30.504 60.8746C31.1296 60.8746 31.6368 60.3674 31.6368 59.7418V42.8703C31.6993 42.7627 31.745 42.6429 31.7695 42.5136C32.3746 39.3382 34.926 36.9396 38.0399 36.4654V40.6233C38.0399 42.3893 36.6037 43.8261 34.8383 43.8261C34.2127 43.8261 33.7055 44.3333 33.7055 44.9589C33.7055 45.5846 34.2127 46.0917 34.8383 46.0917C37.853 46.0917 40.3055 43.6386 40.3055 40.6233V17.9042C40.3055 17.2785 39.7983 16.7714 39.1727 16.7714ZM38.0399 19.1221V25.5084C35.4773 25.8069 33.2096 27.1048 31.6368 28.9972V26.5756C31.6368 22.8039 34.4202 19.6703 38.0399 19.1221ZM29.3712 26.5756V28.9923C27.7988 27.1011 25.5315 25.8061 22.968 25.5083V19.1221C26.5878 19.6703 29.3712 22.8039 29.3712 26.5756ZM22.968 34.18V27.7939C26.5848 28.3439 29.3712 31.4848 29.3712 35.247V37.6595C27.7876 35.7567 25.5085 34.4763 22.968 34.18ZM31.6368 37.6565V35.2471C31.6368 31.4909 34.4252 28.3454 38.0399 27.7942V34.1799C35.4983 34.4754 33.22 35.7538 31.6368 37.6565Z" fill="#27AAE1"/>
<path fill-rule="evenodd" clip-rule="evenodd" d="M48.2942 64.4V57.0138L45.4045 57.1069C45.2872 48.9589 38.6503 42.4152 30.504 42.4152C22.2737 42.4152 15.6018 49.0891 15.6018 57.3218C15.6018 65.5546 22.2737 72.2285 30.504 72.2285V70.3774C30.504 68.0998 28.8524 66.3934 27.1411 65.805C23.664 64.4258 21.3808 61.0633 21.3808 57.3218C21.3808 52.2817 25.4654 48.196 30.504 48.196C35.5425 48.196 39.6269 52.2818 39.6269 57.3218V61.6411C39.6269 63.0491 40.7794 64.1553 42.1862 64.2011L48.2942 64.4Z" fill="#9BCB46"/>
<path fill-rule="evenodd" clip-rule="evenodd" d="M54.0735 56.8277V64.5882L59.8526 64.7763V56.6415L54.0735 56.8277Z" fill="#9BCB46"/>
<path d="M68.2683 66.1809C68.2116 66.1809 68.1548 66.18 68.0978 66.1782L48.2574 65.5323C47.6464 65.5124 47.1614 65.0113 47.1614 64.4V57.0137C47.1614 56.4024 47.6466 55.9012 48.2578 55.8815L68.0982 55.2422C69.5184 55.1952 70.8716 55.7275 71.9144 56.7371C72.9868 57.7756 73.6018 59.2236 73.6018 60.7101C73.6018 62.197 72.9864 63.6457 71.9134 64.6844C70.9123 65.6534 69.6237 66.1809 68.2683 66.1809ZM49.427 63.3036L68.1715 63.9138C68.9712 63.9392 69.7396 63.6354 70.3375 63.0566C70.9722 62.4423 71.3361 61.5871 71.3361 60.7103C71.3361 59.834 70.9723 58.9791 70.3381 58.365C69.7402 57.786 68.9688 57.4818 68.171 57.5069L49.4269 58.1109V63.3036H49.427Z" fill="#27AAE1"/>
</g>
<g clip-path="url(#clip1_5_2111)">
<path d="M39.1727 16.7714C35.4181 16.7714 32.1496 18.8944 30.504 22.0029C28.8583 18.8944 25.5898 16.7714 21.8352 16.7714C21.2096 16.7714 20.7024 17.2785 20.7024 17.9042V40.6233C20.7024 43.6386 23.155 46.0917 26.1696 46.0917C26.7952 46.0917 27.3024 45.5846 27.3024 44.9589C27.3024 44.3333 26.7952 43.8261 26.1696 43.8261C24.4043 43.8261 22.968 42.3892 22.968 40.6233V36.4656C26.0806 36.9407 28.6344 39.343 29.2384 42.5135C29.263 42.6428 29.3087 42.7626 29.3712 42.8703V59.7418C29.3712 60.3674 29.8783 60.8746 30.504 60.8746C31.1296 60.8746 31.6368 60.3674 31.6368 59.7418V42.8703C31.6993 42.7627 31.745 42.6429 31.7695 42.5136C32.3746 39.3382 34.926 36.9396 38.0399 36.4654V40.6233C38.0399 42.3893 36.6037 43.8261 34.8383 43.8261C34.2127 43.8261 33.7055 44.3333 33.7055 44.9589C33.7055 45.5846 34.2127 46.0917 34.8383 46.0917C37.853 46.0917 40.3055 43.6386 40.3055 40.6233V17.9042C40.3055 17.2785 39.7983 16.7714 39.1727 16.7714ZM38.0399 19.1221V25.5084C35.4773 25.8069 33.2096 27.1048 31.6368 28.9972V26.5756C31.6368 22.8039 34.4202 19.6703 38.0399 19.1221ZM29.3712 26.5756V28.9923C27.7988 27.1011 25.5315 25.8061 22.968 25.5083V19.1221C26.5878 19.6703 29.3712 22.8039 29.3712 26.5756ZM22.968 34.18V27.7939C26.5848 28.3439 29.3712 31.4848 29.3712 35.247V37.6595C27.7876 35.7567 25.5085 34.4763 22.968 34.18ZM31.6368 37.6565V35.2471C31.6368 31.4909 34.4252 28.3454 38.0399 27.7942V34.1799C35.4983 34.4754 33.22 35.7538 31.6368 37.6565Z" fill="#27AAE1"/>
<path fill-rule="evenodd" clip-rule="evenodd" d="M48.2942 64.4V57.0138L45.4045 57.1069C45.2872 48.9589 38.6503 42.4152 30.504 42.4152C22.2737 42.4152 15.6018 49.0891 15.6018 57.3218C15.6018 65.5546 22.2737 72.2285 30.504 72.2285V70.3774C30.504 68.0998 28.8524 66.3934 27.1411 65.805C23.664 64.4258 21.3808 61.0633 21.3808 57.3218C21.3808 52.2817 25.4654 48.196 30.504 48.196C35.5425 48.196 39.6269 52.2818 39.6269 57.3218V61.6411C39.6269 63.0491 40.7794 64.1553 42.1862 64.2011L48.2942 64.4Z" fill="#9BCB46"/>
<path fill-rule="evenodd" clip-rule="evenodd" d="M54.0735 56.8277V64.5882L59.8526 64.7763V56.6415L54.0735 56.8277Z" fill="#9BCB46"/>
<path d="M68.2683 66.1809C68.2116 66.1809 68.1548 66.18 68.0978 66.1782L48.2574 65.5323C47.6464 65.5124 47.1614 65.0113 47.1614 64.4V57.0137C47.1614 56.4024 47.6466 55.9012 48.2578 55.8815L68.0982 55.2422C69.5184 55.1952 70.8716 55.7275 71.9144 56.7371C72.9868 57.7756 73.6018 59.2236 73.6018 60.7101C73.6018 62.197 72.9864 63.6457 71.9134 64.6844C70.9123 65.6534 69.6237 66.1809 68.2683 66.1809ZM49.427 63.3036L68.1715 63.9138C68.9712 63.9392 69.7396 63.6354 70.3375 63.0566C70.9722 62.4423 71.3361 61.5871 71.3361 60.7103C71.3361 59.834 70.9723 58.9791 70.3381 58.365C69.7402 57.786 68.9688 57.4818 68.171 57.5069L49.4269 58.1109V63.3036H49.427Z" fill="#27AAE1"/>
</g>
<defs>
<clipPath id="clip0_5_2111">
<rect width="58" height="58" fill="white" transform="translate(15.6018 15.5)"/>
</clipPath>
<clipPath id="clip1_5_2111">
<rect width="58" height="58" fill="white" transform="translate(15.6018 15.5)"/>
</clipPath>
</defs>
</svg>
