<svg width="89" height="90" viewBox="0 0 89 90" fill="none" xmlns="http://www.w3.org/2000/svg">
<circle cx="44.6018" cy="45" r="44.25" fill="#F7F7F7"/>
<g clip-path="url(#clip0_5_2186)">
<path d="M29.4603 30.8495V40.5204H39.6102C39.6102 39.2501 40.6364 38.2203 41.9023 38.2203C43.1682 38.2203 44.1944 39.2501 44.1944 40.5204H47.5651V30.8495H29.4603Z" fill="#8DC63F"/>
<path d="M52.1588 57.6945H61.1025V67.3659H52.1588V57.6945Z" fill="#8DC63F"/>
<path d="M26.1825 43.7579C27.6382 43.7579 28.8721 42.7873 29.274 41.4579H38.8107C39.2127 42.7873 40.4464 43.7579 41.9022 43.7579C43.3579 43.7579 44.5918 42.7873 44.9937 41.4579H47.5649C48.0826 41.4579 48.5024 41.0381 48.5024 40.5204V24.6897C48.5024 23.0322 47.1544 21.6838 45.4977 21.6838H31.5275C29.8707 21.6838 28.5228 23.0322 28.5228 24.6897V26.909H26.4573C25.5167 26.909 24.6183 27.3587 24.0541 28.112L21.2023 31.9195C20.815 32.4364 20.6018 33.077 20.6018 33.7232V40.5204C20.6018 41.0381 21.0216 41.4579 21.5393 41.4579H23.0911C23.493 42.7873 24.7268 43.7579 26.1825 43.7579ZM26.1825 41.8829C25.4356 41.8829 24.828 41.2717 24.828 40.5204C24.828 39.7691 25.4356 39.1577 26.1825 39.1577C26.9295 39.1577 27.5371 39.7691 27.5371 40.5204C27.5371 41.2717 26.9295 41.8829 26.1825 41.8829ZM41.9023 41.8829C41.1553 41.8829 40.5477 41.2717 40.5477 40.5204C40.5477 39.7691 41.1553 39.1577 41.9023 39.1577C42.6493 39.1577 43.2569 39.7691 43.2569 40.5204C43.2569 41.2717 42.6493 41.8829 41.9023 41.8829ZM30.3978 24.6897C30.3978 24.0662 30.9046 23.5588 31.5275 23.5588H45.4979C46.1208 23.5588 46.6276 24.0661 46.6276 24.6897V39.5828H44.9939C44.592 38.2532 43.3581 37.2826 41.9024 37.2826C40.4466 37.2826 39.2128 38.2532 38.8109 39.5828H30.3978V24.6897ZM22.4768 33.7232C22.4768 33.4796 22.5571 33.2382 22.703 33.0435L25.5548 29.2361C25.7669 28.953 26.1041 28.7841 26.4573 28.7841H28.5228V38.2915C27.9339 37.6705 27.1025 37.2828 26.1825 37.2828C24.7267 37.2828 23.493 38.2534 23.091 39.583H22.4768V33.7232Z" fill="#27AAE1"/>
<path d="M68.2939 56.1354L58.5652 47.319C61.618 46.2995 63.8246 43.4141 63.8246 40.023C63.8246 35.7829 60.3751 32.3335 56.1352 32.3335H53.7617L54.0634 32.0318C54.4295 31.6657 54.4295 31.0721 54.0634 30.7059C53.6972 30.3399 53.1037 30.3399 52.7375 30.7059L50.8354 32.608C50.4693 32.9741 50.4693 33.5677 50.8354 33.9339L52.7375 35.836C52.9206 36.019 53.1605 36.1106 53.4004 36.1106C53.6403 36.1106 53.8802 36.019 54.0633 35.836C54.4294 35.4699 54.4294 34.8763 54.0633 34.5101L53.7616 34.2084H56.1351C59.3412 34.2084 61.9495 36.8167 61.9495 40.0229C61.9495 43.229 59.3412 45.8373 56.1351 45.8373H32.6346C28.56 45.8373 25.2451 49.1522 25.2451 53.2269C25.2451 57.3016 28.56 60.6165 32.6346 60.6165H41.9023C42.42 60.6165 42.8398 60.1966 42.8398 59.679C42.8398 59.1613 42.42 58.7415 41.9023 58.7415H32.6346C29.5939 58.7415 27.1201 56.2676 27.1201 53.2269C27.1201 50.1862 29.594 47.7123 32.6346 47.7123H54.2619L44.9676 56.1353C44.5838 56.483 44.5548 57.0759 44.9024 57.4595C45.25 57.8432 45.843 57.8723 46.2266 57.5247L46.3216 57.4386V67.3354C46.3216 67.8524 46.74 68.2717 47.257 68.2729L66.0005 68.3159H66.0025C66.2507 68.3159 66.4889 68.2173 66.6646 68.042C66.8409 67.8661 66.94 67.6274 66.94 67.3784V57.4388L67.035 57.5249C67.2144 57.6874 67.4396 57.7677 67.6642 57.7677C67.9197 57.7677 68.1741 57.6639 68.3592 57.4597C68.7066 57.076 68.6776 56.4831 68.2939 56.1354ZM65.0648 55.8393V66.4389L48.1964 66.4003V55.7396L56.6306 48.0961L65.0696 55.7439C65.0665 55.7753 65.0648 55.8072 65.0648 55.8393Z" fill="#27AAE1"/>
</g>
<defs>
<clipPath id="clip0_5_2186">
<rect width="48" height="48" fill="white" transform="translate(20.6018 21)"/>
</clipPath>
</defs>
</svg>
