<svg width="89" height="90" viewBox="0 0 89 90" fill="none" xmlns="http://www.w3.org/2000/svg">
<circle cx="44.6018" cy="45" r="44.25" fill="#F7F7F7"/>
<g clip-path="url(#clip0_5_2141)">
<path fill-rule="evenodd" clip-rule="evenodd" d="M34.5941 28.0312H35.8363V21.9375H34.5941C27.414 21.9375 21.5394 27.8121 21.5394 34.9922C21.5394 42.1722 27.414 48.0469 34.5941 48.0469H35.8363V41.9531H34.5941C30.7776 41.9531 27.6332 38.8087 27.6332 34.9922C27.6332 31.1757 30.7776 28.0312 34.5941 28.0312Z" fill="#9BCB46"/>
<path fill-rule="evenodd" clip-rule="evenodd" d="M61.5706 55.0079C61.5706 58.8244 58.4261 61.9689 54.6097 61.9689H53.3675V68.0626H54.6097C61.7898 68.0626 67.6644 62.1881 67.6644 55.0079C67.6644 47.8278 61.7897 41.9532 54.6097 41.9532H53.3675V48.047H54.6097C58.4261 48.047 61.5706 51.1915 61.5706 55.0079Z" fill="#9BCB46"/>
<path d="M36.7524 38.8617C38.8935 38.3556 40.2189 36.2096 39.7128 34.0685C39.2067 31.9274 37.0607 30.602 34.9196 31.1081C32.7785 31.6142 31.4531 33.7602 31.9592 35.9013C32.4653 38.0424 34.6113 39.3678 36.7524 38.8617Z" fill="#9BCB46"/>
<path d="M53.996 58.9435C56.1679 58.5914 57.6432 56.5453 57.2911 54.3734C56.939 52.2015 54.8929 50.7262 52.721 51.0783C50.5491 51.4304 49.0738 53.4765 49.4259 55.6484C49.778 57.8203 51.8241 59.2956 53.996 58.9435Z" fill="#9BCB46"/>
<path d="M65.3205 32.7186H67.6642C68.1819 32.7186 68.6017 32.2988 68.6017 31.7811V21.9375C68.6017 21.4198 68.1819 21 67.6642 21H34.594C26.8787 21 20.6018 27.2768 20.6018 34.9922C20.6018 42.7074 26.8786 48.9842 34.594 48.9842H35.2907C35.2029 49.3609 35.1564 49.7533 35.1564 50.1563C35.1564 52.003 36.1321 53.626 37.5953 54.5368C35.2714 55.6182 33.6565 57.9757 33.6565 60.7031V61.0313H27.1643V60.5625C27.1643 58.7532 25.6923 57.2814 23.8831 57.2814H21.5393C21.0216 57.2814 20.6018 57.7012 20.6018 58.2189V68.0625C20.6018 68.5802 21.0216 69 21.5393 69H54.6096C62.3249 69 68.6017 62.7232 68.6017 55.0078C68.6017 47.6075 62.8269 41.5307 55.5471 41.0468V40.6874C55.5471 37.9599 53.9321 35.6025 51.6083 34.5211C53.0714 33.6102 54.0471 31.9872 54.0471 30.1405C54.0471 29.7376 54.0006 29.3452 53.9128 28.9686H62.0392V29.4374C62.0392 31.2467 63.5113 32.7186 65.3205 32.7186ZM63.9142 22.875H66.7267V30.8436H65.3205C64.5451 30.8436 63.9142 30.2128 63.9142 29.4374V22.875ZM25.2893 67.125H22.4768V59.1564H23.8831C24.6585 59.1564 25.2893 59.7872 25.2893 60.5625V67.125ZM40.3127 46.8749C42.122 46.8749 43.594 48.3469 43.594 50.1563C43.594 51.9656 42.122 53.4375 40.3127 53.4375C38.5033 53.4375 37.0314 51.9656 37.0314 50.1563C37.0315 48.3469 38.5034 46.8749 40.3127 46.8749ZM45.3346 48.9843L54.6096 48.9844C57.9309 48.9844 60.633 51.6865 60.633 55.0078C60.633 58.3292 57.9309 61.0313 54.6096 61.0313H47.2502V60.7031C47.2502 57.9114 45.5583 55.5073 43.146 54.4625C44.5445 53.5393 45.4689 51.9538 45.4689 50.1563C45.4689 49.7533 45.4225 49.3609 45.3346 48.9843ZM35.5315 60.7031C35.5315 57.9893 37.7395 55.7813 40.4533 55.7813C43.1672 55.7813 45.3752 57.9893 45.3752 60.7031V61.0313H35.5315V60.7031ZM53.6721 40.6874V41.0157H43.8283V40.6875C43.8283 37.9736 46.0363 35.7656 48.7502 35.7656C51.4641 35.7656 53.6721 37.9735 53.6721 40.6874ZM46.0576 34.4467C43.6453 35.4916 41.9533 37.8956 41.9533 40.6874V41.0156H34.594C31.2726 41.0156 28.5705 38.3135 28.5705 34.9922C28.5705 31.6708 31.2726 28.9686 34.594 28.9686H43.869C43.7812 29.3452 43.7347 29.7376 43.7347 30.1405C43.7347 31.938 44.6592 33.5235 46.0576 34.4467ZM48.8909 33.4218C47.0816 33.4218 45.6097 31.9498 45.6097 30.1405C45.6097 28.3312 47.0816 26.8593 48.8909 26.8593C50.7002 26.8593 52.1722 28.3312 52.1722 30.1405C52.1722 31.9498 50.7002 33.4218 48.8909 33.4218ZM53.0483 27.0936C52.1091 25.8154 50.5952 24.9843 48.891 24.9843C47.1868 24.9843 45.6729 25.8154 44.7337 27.0936H34.594C32.4977 27.0936 30.5179 27.9189 29.0194 29.4175C27.5208 30.9161 26.6955 32.8959 26.6955 34.9922C26.6955 37.0883 27.5208 39.0682 29.0194 40.5667C30.5179 42.0653 32.4978 42.8906 34.594 42.8906L54.6096 42.8907C61.291 42.8907 66.7267 48.3264 66.7267 55.0078C66.7267 61.6893 61.291 67.125 54.6096 67.125H27.1643V62.9063H54.6096C56.7058 62.9063 58.6856 62.081 60.1841 60.5824C61.6828 59.0839 62.508 57.1041 62.508 55.0078C62.508 52.9117 61.6827 50.9318 60.1841 49.4333C58.6856 47.9347 56.7057 47.1094 54.6096 47.1094L44.4701 47.1093C43.5309 45.831 42.0171 45 40.3128 45C38.6085 45 37.0947 45.831 36.1555 47.1092H34.594C27.9126 47.1092 22.4768 41.6736 22.4768 34.9922C22.4768 28.3107 27.9126 22.875 34.594 22.875H62.0392V27.0936H53.0483Z" fill="#27AAE1"/>
</g>
<defs>
<clipPath id="clip0_5_2141">
<rect width="48" height="48" fill="white" transform="translate(20.6018 21)"/>
</clipPath>
</defs>
</svg>
