<svg width="89" height="90" viewBox="0 0 89 90" fill="none" xmlns="http://www.w3.org/2000/svg">
<circle cx="44.6018" cy="45" r="44.25" fill="#F7F7F7"/>
<g clip-path="url(#clip0_5_2160)">
<path d="M35.1464 40.1396H42.6663V63.9437H35.1464V40.1396Z" fill="#9BCB46"/>
<path d="M57.9285 40.1396H65.4484V63.9437H57.9285V40.1396Z" fill="#9BCB46"/>
<path d="M67.6643 63.0061H54.9948V46.8658C54.9948 46.3481 54.575 45.9283 54.0573 45.9283H46.5374C46.0196 45.9283 45.5999 46.3481 45.5999 46.8658V63.0062H32.2127V51.395C32.2127 50.8772 31.7929 50.4575 31.2752 50.4575H23.7553C23.2375 50.4575 22.8178 50.8772 22.8178 51.395V63.0062H21.5393C21.0215 63.0062 20.6018 63.4259 20.6018 63.9437C20.6018 64.4615 21.0215 64.8812 21.5393 64.8812H67.6643C68.1821 64.8812 68.6018 64.4615 68.6018 63.9437C68.6018 63.4259 68.1821 63.0061 67.6643 63.0061ZM24.6928 63.0061V52.3325H30.3377V63.0062H24.6928V63.0061ZM47.4749 63.0061V47.8033H53.1198V63.0062H47.4749V63.0061Z" fill="#27AAE1"/>
<path d="M27.9258 39.9558C28.1058 40.1209 28.3327 40.2024 28.5591 40.2024C28.8126 40.2024 29.0654 40.1001 29.2504 39.8986L36.9096 31.5468C37.4776 31.9386 38.1656 32.1683 38.9063 32.1683C39.9085 32.1683 40.8144 31.7478 41.4568 31.0741L48.5157 36.4717C48.6857 36.6016 48.8858 36.6646 49.0845 36.6646C49.3665 36.6646 49.6454 36.5378 49.8299 36.2965C50.1443 35.8852 50.0659 35.2968 49.6546 34.9823L42.35 29.3969C42.4031 29.1541 42.431 28.9021 42.431 28.6436C42.431 26.7001 40.8499 25.1188 38.9062 25.1188C36.9626 25.1188 35.3815 26.7001 35.3815 28.6436C35.3815 29.1615 35.4938 29.6536 35.6953 30.0969L27.8684 38.6312C27.5184 39.0129 27.5441 39.6059 27.9258 39.9558ZM38.9063 26.9939C39.8161 26.9939 40.5561 27.7339 40.5561 28.6437C40.5561 29.5534 39.8161 30.2935 38.9063 30.2935C37.9966 30.2935 37.2565 29.5534 37.2565 28.6437C37.2565 27.7339 37.9966 26.9939 38.9063 26.9939Z" fill="#27AAE1"/>
<path d="M51.6217 36.9774C51.8264 36.9774 52.0325 36.9106 52.2051 36.7732L59.209 31.1964C59.8463 31.8278 60.7226 32.2183 61.6885 32.2183C63.632 32.2183 65.2133 30.6371 65.2133 28.6935C65.2133 26.7499 63.6321 25.1687 61.6885 25.1687C59.7449 25.1687 58.1637 26.75 58.1637 28.6935C58.1637 28.9883 58.2001 29.2746 58.2686 29.5484L51.0372 35.3064C50.6322 35.6289 50.5653 36.2186 50.8878 36.6237C51.0728 36.8562 51.346 36.9774 51.6217 36.9774ZM61.6884 27.0438C62.5982 27.0438 63.3382 27.7839 63.3382 28.6936C63.3382 29.6034 62.5982 30.3434 61.6884 30.3434C60.7787 30.3434 60.0386 29.6034 60.0386 28.6936C60.0386 27.7839 60.7788 27.0438 61.6884 27.0438Z" fill="#27AAE1"/>
<path d="M27.5152 42.4809C28.9442 42.4809 30.1026 41.3225 30.1026 39.8936C30.1026 38.4647 28.9442 37.3063 27.5152 37.3063C26.0863 37.3063 24.9279 38.4647 24.9279 39.8936C24.9279 41.3225 26.0863 42.4809 27.5152 42.4809Z" fill="#9BCB46"/>
<path d="M50.2973 38.4283C51.7263 38.4283 52.8847 37.2699 52.8847 35.841C52.8847 34.412 51.7263 33.2537 50.2973 33.2537C48.8684 33.2537 47.71 34.412 47.71 35.841C47.71 37.2699 48.8684 38.4283 50.2973 38.4283Z" fill="#9BCB46"/>
</g>
<defs>
<clipPath id="clip0_5_2160">
<rect width="48" height="48" fill="white" transform="translate(20.6018 21)"/>
</clipPath>
</defs>
</svg>
