<svg width="61" height="61" viewBox="0 0 61 61" fill="none" xmlns="http://www.w3.org/2000/svg">
<path d="M45.3642 20.2143C44.2585 20.6913 43.0551 21.0346 41.8156 21.1683C43.1025 20.4038 44.0662 19.196 44.5259 17.7715C43.3183 18.4898 41.9954 18.9935 40.6159 19.2603C40.0393 18.6439 39.342 18.1528 38.5673 17.8177C37.7927 17.4826 36.9573 17.3107 36.1133 17.3125C32.6983 17.3125 29.952 20.0806 29.952 23.4774C29.952 23.9544 30.0098 24.4314 30.1037 24.8904C24.9904 24.623 20.4299 22.1801 17.3981 18.44C16.8456 19.3836 16.5561 20.4579 16.5597 21.5513C16.5597 23.6906 17.6474 25.577 19.3061 26.6864C18.3286 26.6479 17.374 26.3792 16.52 25.9022V25.9781C16.52 28.9738 18.6376 31.4564 21.4598 32.0274C20.9299 32.165 20.3848 32.2354 19.8373 32.237C19.4362 32.237 19.0567 32.1972 18.6737 32.143C19.4543 34.5858 21.7272 36.3602 24.4339 36.418C22.3163 38.0766 19.6638 39.0523 16.7838 39.0523C16.267 39.0523 15.79 39.0343 15.2949 38.9764C18.0269 40.7291 21.2683 41.7409 24.7591 41.7409C36.0916 41.7409 42.2926 32.3526 42.2926 24.2038C42.2926 23.9364 42.2926 23.669 42.2746 23.4015C43.4743 22.5234 44.5259 21.4357 45.3642 20.2143Z" fill="#454D4D"/>
</svg>
